# xmcd
#
# Track frame offsets:
#	150
#	13485
#	25972
#	43460
#	57290
#	73792
#	93530
#	109745
#	125902
#	143167
#	163132
#	182835
#	196350
#	216147
#
# Disc length: 3047 seconds
# Revision: 1
# Processed by: cddbd v1.5.2PL0 Copyright (c) Steve Scherf et al.
# Submitted via: dBpowerAMP V12.0
#
DISCID=e00be50e
DTITLE=Rawls and Luckett - Can't Sleep at Night
DYEAR=1994
DGENRE=Soul
TTITLE0=Can't Sleep at Night
TTITLE1=I Don't do Windows
TTITLE2=Can we Talk it Over
TTITLE3=What Makes a Good Man go Bad
TTITLE4=Have You Ever Played The Fool
TTITLE5=Shake It, Shake It, Baby
TTITLE6=Good Love (Takes More Than a Minute)
TTITLE7=Soul to Soul
TTITLE8=Playboy
TTITLE9=Be Fair to People
TTITLE10=If You're Not Home by Tomorrow
TTITLE11=Who Made The Mountain
TTITLE12=Don't Mess With my Wife
TTITLE13=Medley - I'd Rather be Blind, Crippled And Crazy and Ace of Spades
EXTD=
EXTT0=
EXTT1=
EXTT2=
EXTT3=
EXTT4=
EXTT5=
EXTT6=
EXTT7=
EXTT8=
EXTT9=
EXTT10=
EXTT11=
EXTT12=
EXTT13=
PLAYORDER=
